<svg width="100%" viewBox="0 0 360 245" preserveAspectRatio="xMidYMid meet" fill="none" xmlns="http://www.w3.org/2000/svg">
<g id="illustration">
<path id="leaf" d="M16.728 226.661C21.7216 240.621 32.3197 246.613 32.3197 246.613C32.3197 246.613 34.8217 229.973 29.8281 216.014C24.8345 202.054 14.2364 196.062 14.2364 196.062C14.2364 196.062 11.7344 212.702 16.728 226.661Z" fill="#2F2E41"/>
<path id="leaf_2" d="M20.1602 222.069C29.1756 230.245 32.6478 246.484 32.6478 246.484C32.6478 246.484 21.503 249.468 12.4876 241.292C3.47213 233.116 0 216.877 0 216.877C0 216.877 11.1448 213.893 20.1602 222.069Z" fill="white"/>
<g id="cart">
<path id="leaf_3" d="M125.295 150.244C133.964 147.992 138.454 141.335 138.454 141.335C138.454 141.335 128.886 138.331 120.216 140.583C111.546 142.835 107.057 149.492 107.057 149.492C107.057 149.492 116.625 152.496 125.295 150.244Z" fill="#2F2E41"/>
<path id="leaf_4" d="M117.497 79.545C123.03 86.5897 130.926 88.0409 130.926 88.0409C130.926 88.0409 129.852 78.0702 124.319 71.0254C118.786 63.9807 110.89 62.5296 110.89 62.5296C110.89 62.5296 111.964 72.5002 117.497 79.545Z" fill="#2F2E41"/>
<path id="leaf_5" d="M211.422 95.9387C208.486 104.402 211.534 111.829 211.534 111.829C211.534 111.829 219.341 105.536 222.277 97.0728C225.213 88.6099 222.166 81.1823 222.166 81.1823C222.166 81.1823 214.358 87.4757 211.422 95.9387Z" fill="white"/>
<path id="leaf_6" d="M179.601 62.6261C185.302 69.5352 193.231 70.7953 193.231 70.7953C193.231 70.7953 191.917 60.8535 186.215 53.9443C180.514 47.0352 172.585 45.7751 172.585 45.7751C172.585 45.7751 173.9 55.717 179.601 62.6261Z" fill="white"/>
<path id="Vector" d="M201.897 222.332H106.76V221.301H201.213V171.263H114.758L110.558 158.074L111.176 157.627L115.189 170.231H201.897V222.332Z" fill="#2F2E41"/>
<path id="Vector_2" d="M119.422 247.609C123.391 247.609 126.609 242.759 126.609 236.776C126.609 230.793 123.391 225.943 119.422 225.943C115.453 225.943 112.236 230.793 112.236 236.776C112.236 242.759 115.453 247.609 119.422 247.609Z" fill="black"/>
<path id="Vector_3" d="M190.262 247.609C194.231 247.609 197.449 242.759 197.449 236.776C197.449 230.793 194.231 225.943 190.262 225.943C186.293 225.943 183.075 230.793 183.075 236.776C183.075 242.759 186.293 247.609 190.262 247.609Z" fill="black"/>
<path id="Vector_4" d="M273.764 13.4121C276.221 13.4121 278.213 10.4097 278.213 6.70608C278.213 3.00242 276.221 0 273.764 0C271.307 0 269.315 3.00242 269.315 6.70608C269.315 10.4097 271.307 13.4121 273.764 13.4121Z" fill="black"/>
<path id="Vector_5" d="M212.073 154.24H105.138L82 40.2366H235.902L235.762 40.9074L212.073 154.24ZM105.644 153.208H211.571L234.969 41.2683H82.9251L105.644 153.208Z" fill="#2F2E41"/>
<path id="Vector_6" d="M237.819 30.0517L237.157 29.787L241.674 4.12671H267.946V5.1587H242.201L237.819 30.0517Z" fill="#2F2E41"/>
<path id="Vector_7" d="M228.211 74.7985H89.4771V75.8302H228.211V74.7985Z" fill="#2F2E41"/>
<path id="Vector_8" d="M220.266 112.808H97.1917V113.84H220.266V112.808Z" fill="#2F2E41"/>
<path id="Vector_9" d="M159.291 40.7522H158.607V153.724H159.291V40.7522Z" fill="#2F2E41"/>
<path id="Vector_10" d="M189.935 40.7201L185.021 153.689L185.705 153.756L190.618 40.7876L189.935 40.7201Z" fill="#2F2E41"/>
<path id="Vector_11" d="M127.977 40.7186L127.294 40.7858L132.179 153.757L132.862 153.69L127.977 40.7186Z" fill="#2F2E41"/>
</g>
<path id="floor" d="M360 246.2H0V247.412H360V246.2Z" fill="#2F2E41"/>
</g>
</svg>
